<svg aria-hidden="true" xmlns="http://www.w3.org/2000/svg" xmlns:xlink="http://www.w3.org/1999/xlink"><symbol viewBox="0 0 40 40" fill="none" id="YouTube" xmlns="http://www.w3.org/2000/svg">
<g clip-path="url(#dclip0_16_413)">
<path d="M23.2058 19.666L18.7138 17.57C18.3218 17.388 17.9998 17.592 17.9998 18.026V21.974C17.9998 22.408 18.3218 22.612 18.7138 22.43L23.2038 20.334C23.5978 20.15 23.5978 19.85 23.2058 19.666ZM19.9998 0.799988C9.39581 0.799988 0.799805 9.39599 0.799805 20C0.799805 30.604 9.39581 39.2 19.9998 39.2C30.6038 39.2 39.1998 30.604 39.1998 20C39.1998 9.39599 30.6038 0.799988 19.9998 0.799988ZM19.9998 27.8C10.1718 27.8 9.9998 26.914 9.9998 20C9.9998 13.086 10.1718 12.2 19.9998 12.2C29.8278 12.2 29.9998 13.086 29.9998 20C29.9998 26.914 29.8278 27.8 19.9998 27.8Z" fill="currentColor"/>
</g>
<defs>
<clipPath id="dclip0_16_413">
<rect width="40" height="40" fill="currentColor"/>
</clipPath>
</defs>
</symbol><symbol viewBox="0 0 38 38" fill="none" id="facebook" xmlns="http://www.w3.org/2000/svg">
<circle cx="19" cy="19" r="19" fill="currentColor"/>
<path d="M20.4248 16.625H23.9873V20.1875H20.4248V28.5H16.8623V20.1875H13.2998V16.625H16.8623V15.1347C16.8623 13.7227 17.3064 11.9391 18.1899 10.9642C19.0734 9.98687 20.1766 9.5 21.4983 9.5H23.9873V13.0625H21.4936C20.9022 13.0625 20.4248 13.5399 20.4248 14.1301V16.625Z" fill="currentColor"/>
</symbol><symbol viewBox="0 0 40 40" fill="none" id="instagram" xmlns="http://www.w3.org/2000/svg">
<path d="M26.25 20C26.25 21.6576 25.5915 23.2473 24.4194 24.4194C23.2473 25.5915 21.6576 26.25 20 26.25C18.3424 26.25 16.7527 25.5915 15.5806 24.4194C14.4085 23.2473 13.75 21.6576 13.75 20C13.75 19.6437 13.7875 19.2958 13.8521 18.9583H11.6667V27.2854C11.6667 27.8646 12.1354 28.3333 12.7146 28.3333H27.2875C27.5651 28.3328 27.8311 28.2221 28.0271 28.0257C28.2232 27.8292 28.3333 27.563 28.3333 27.2854V18.9583H26.1479C26.2125 19.2958 26.25 19.6437 26.25 20ZM20 24.1667C20.5473 24.1665 21.0892 24.0586 21.5948 23.849C22.1004 23.6394 22.5598 23.3323 22.9467 22.9452C23.3336 22.5581 23.6405 22.0986 23.8498 21.5929C24.0591 21.0872 24.1668 20.5452 24.1667 19.9979C24.1665 19.4506 24.0586 18.9087 23.849 18.4031C23.6394 17.8975 23.3323 17.4381 22.9452 17.0512C22.5581 16.6643 22.0986 16.3574 21.5929 16.1481C21.0872 15.9388 20.5452 15.8311 19.9979 15.8312C18.8926 15.8315 17.8326 16.2709 17.0512 17.0527C16.2698 17.8345 15.831 18.8947 15.8312 20C15.8315 21.1053 16.2709 22.1653 17.0527 22.9467C17.8345 23.7281 18.8947 24.1669 20 24.1667ZM25 15.625H27.4979C27.6639 15.625 27.8231 15.5592 27.9406 15.4421C28.0581 15.3249 28.1244 15.166 28.125 15V12.5021C28.125 12.3358 28.0589 12.1763 27.9413 12.0587C27.8237 11.9411 27.6642 11.875 27.4979 11.875H25C24.8337 11.875 24.6742 11.9411 24.5566 12.0587C24.439 12.1763 24.3729 12.3358 24.3729 12.5021V15C24.375 15.3437 24.6562 15.625 25 15.625ZM20 0C14.6957 0 9.60859 2.10714 5.85786 5.85786C2.10714 9.60859 0 14.6957 0 20C0 25.3043 2.10714 30.3914 5.85786 34.1421C9.60859 37.8929 14.6957 40 20 40C22.6264 40 25.2272 39.4827 27.6537 38.4776C30.0802 37.4725 32.285 35.9993 34.1421 34.1421C35.9993 32.285 37.4725 30.0802 38.4776 27.6537C39.4827 25.2272 40 22.6264 40 20C40 17.3736 39.4827 14.7728 38.4776 12.3463C37.4725 9.91982 35.9993 7.71504 34.1421 5.85786C32.285 4.00069 30.0802 2.5275 27.6537 1.52241C25.2272 0.517315 22.6264 0 20 0ZM30.4167 28.1021C30.4167 29.375 29.375 30.4167 28.1021 30.4167H11.8979C10.625 30.4167 9.58333 29.375 9.58333 28.1021V11.8979C9.58333 10.625 10.625 9.58333 11.8979 9.58333H28.1021C29.375 9.58333 30.4167 10.625 30.4167 11.8979V28.1021Z" fill="currentColor"/>
</symbol><symbol viewBox="0 0 40 40" fill="none" id="linkedin" xmlns="http://www.w3.org/2000/svg">
<g clip-path="url(#cclip0_16_418)">
<path d="M20.0008 0.800049C9.39678 0.800049 0.800781 9.39605 0.800781 20C0.800781 30.604 9.39678 39.2001 20.0008 39.2001C30.6048 39.2001 39.2008 30.604 39.2008 20C39.2008 9.39605 30.6048 0.800049 20.0008 0.800049ZM15.3008 27.958H11.4128V15.446H15.3008V27.958ZM13.3328 13.91C12.1048 13.91 11.3108 13.04 11.3108 11.964C11.3108 10.866 12.1288 10.022 13.3828 10.022C14.6368 10.022 15.4048 10.866 15.4288 11.964C15.4288 13.04 14.6368 13.91 13.3328 13.91ZM29.5008 27.958H25.6128V21.024C25.6128 19.41 25.0488 18.314 23.6428 18.314C22.5688 18.314 21.9308 19.056 21.6488 19.7701C21.5448 20.024 21.5188 20.3841 21.5188 20.7421V27.956H17.6288V19.4361C17.6288 17.8741 17.5788 16.568 17.5268 15.444H20.9048L21.0828 17.182H21.1608C21.6728 16.366 22.9268 15.162 25.0248 15.162C27.5828 15.162 29.5008 16.876 29.5008 20.56V27.958Z" fill="currentColor"/>
</g>
<defs>
<clipPath id="cclip0_16_418">
<rect width="40" height="40" fill="currentColor"/>
</clipPath>
</defs>
</symbol></svg>